<svg xmlns="http://www.w3.org/2000/svg" version="1.1" xmlns:xlink="http://www.w3.org/1999/xlink" xmlns:svgjs="http://svgjs.dev/svgjs" viewBox="0 0 800 800"><defs><linearGradient x1="50%" y1="0%" x2="50%" y2="100%" id="ccchaos-grad"><stop stop-color="hsl(230, 55%, 50%)" stop-opacity="1" offset="0%"></stop><stop stop-color="hsl(230, 55%, 70%)" stop-opacity="1" offset="100%"></stop></linearGradient></defs><g stroke-width="2" stroke="url(#ccchaos-grad)" fill="none" stroke-linecap="round"><path d="M388.22 109.28C397.82 105.3 407.52 102.7 417.33 101.74 427.17 102.08 437.14 104.23 447.23 108.05 457.37 112.95 467.67 119.04 478.12 125.94 488.65 132.99 499.35 140.17 510.18 147.16 521.09 153.41 532.13 159.07 543.23 164.07 554.34 168.02 565.43 171.36 576.4 174.25 587.22 176.39 597.76 178.44 607.86 180.6 617.56 182.59 626.61 185.1 634.81 188.25 642.33 191.73 648.79 196.08 654.03 201.31 658.39 207.09 661.43 213.77 663.08 221.25 663.89 229.26 663.43 237.95 661.8 247.19 659.73 256.82 656.88 266.84 653.48 277.13 650.38 287.63 647.32 298.28 644.61 308.98 643.03 319.78 642.33 330.55 642.72 341.22 644.79 351.93 648.14 362.51 652.74 372.9 658.87 383.3 665.93 393.5 673.58 403.42 681.85 413.34 689.72 422.74 696.78 431.58 703.24 440.4 708.15 448.64 711.29 456.28 713.02 463.89 712.68 470.9 710.3 477.33 706.39 483.76 700.63 489.68 693.25 495.15 684.79 500.78 675.18 506.14 664.74 511.38 653.94 517.07 642.8 522.94 631.58 529.17 620.63 536.24 609.93 543.99 599.64 552.58 589.97 562.25 580.81 572.87 572.18 584.44 564.24 596.87 556.75 609.92 549.65 623.27 543.12 636.59 536.81 649.42 530.62 661.18 524.8 671.57 518.93 679.97 512.92 685.9 507.1 689.49 501 690.25 494.59 688.21 488.22 684.24 481.45 678.28 474.27 670.98 467.07 663.8 459.42 656.97 451.32 651.4 443.19 648.37 434.62 647.92 425.62 650.35 416.61 656.04 407.18 664.22 397.37 674.19 387.56 685.34 377.62 695.92 367.61 704.85 357.63 711.82 347.6 715.53 337.57 715.65 327.6 712.6 317.66 706.11 307.81 696.77 298.05 685.51 288.41 672.83 278.97 659.59 269.65 646.73 260.56 634.73 251.77 624.1 243.15 615.38 234.87 608.52 226.99 603.46 219.33 600.4 212.1 598.71 205.35 597.97 195.81 598.58 179.54 599.09 172.79 597.15 168.54 594.87 164.71 591.3 161.3 586.48 157.83 580.87 154.68 574.1 151.82 566.34 148.77 557.96 145.91 548.82 143.23 539.1 140.25 529.03 137.39 518.6 134.67 507.98 131.62 497.21 128.71 486.38 125.97 475.61 122.98 464.8 120.24 454.11 117.81 443.61 115.3 433.12 113.22 422.82 111.66 412.76 110.22 402.7 109.46 393.09 109.41 383.92 109.64 374.72 110.63 365.91 112.38 357.47 114.47 348.93 117.31 340.69 120.85 332.69 124.68 324.51 129.15 316.47 134.18 308.5 139.37 300.24 145.03 291.92 151.08 283.49 157.13 274.67 163.46 265.65 170.01 256.38 176.41 246.72 182.96 236.83 189.62 226.77 196.04 216.49 202.54 206.21 209.11 196.09 215.41 186.14 221.8 176.66 228.29 167.89 234.54 159.77 240.92 152.69 247.46 146.83 253.82 141.93 260.39 138.36 267.18 136.13 273.85 134.69 280.79 134.3 288 134.77 295.15 135.28 302.6 136.05 310.36 136.75 318.07 136.58 326.11 135.81 334.46 134.28 342.79 131.46 351.43 127.85 360.4 123.64 369.35 118.67 378.62 113.74 388.21 109.28" stroke-dasharray="6 8" transform="rotate(0, 400, 400)" opacity="0.05"></path><path d="M393.33 120.14C402.67 116.19 412.15 113.55 421.74 112.45 431.36 112.58 441.12 114.44 451.01 117.91 460.94 122.45 471.03 128.2 481.24 134.84 491.5 141.72 501.9 148.86 512.38 155.96 522.9 162.45 533.47 168.48 544.02 173.94 554.52 178.42 564.91 182.3 575.09 185.68 585.05 188.24 594.65 190.59 603.72 192.88 612.37 194.85 620.3 197.12 627.37 199.86 633.79 202.73 639.16 206.31 643.39 210.63 646.83 215.37 649.07 220.93 650.07 227.25 650.39 234.04 649.62 241.53 647.86 249.62 645.84 258.09 643.19 267.03 640.16 276.33 637.52 285.87 635 295.64 632.87 305.54 631.84 315.58 631.63 325.66 632.44 335.7 634.76 345.8 638.24 355.81 642.82 365.65 648.77 375.52 655.51 385.19 662.77 394.6 670.59 404.02 678.04 412.94 684.75 421.34 690.94 429.72 695.75 437.59 698.95 444.93 700.92 452.28 701 459.14 699.21 465.55 696.02 472.04 691.08 478.17 684.58 484.05 677.04 490.17 668.32 496.22 658.71 502.34 648.64 508.98 638.11 515.94 627.37 523.38 616.74 531.6 606.21 540.52 595.94 550.22 586.14 560.78 576.73 572.1 567.76 584.09 559.38 596.59 551.41 609.36 543.81 622.05 536.73 634.36 529.91 645.84 523.27 656.01 516.99 664.68 510.75 671.29 504.46 675.5 498.38 677.58 492.13 677.11 485.65 674.21 479.27 669.8 472.57 663.8 465.53 656.84 458.51 650.28 451.11 644.26 443.33 639.55 435.54 637.3 427.35 637.43 418.78 640.18 410.19 645.9 401.23 653.82 391.92 663.32 382.61 673.91 373.19 683.99 363.72 692.61 354.26 699.52 344.78 703.52 335.32 704.26 325.9 702.11 316.54 696.74 307.29 688.59 298.12 678.49 289.1 666.79 280.28 654.26 271.59 641.74 263.14 629.67 254.99 618.58 247.01 609.01 239.38 601 232.14 594.61 225.09 590.08 218.46 586.93 212.3 584.87 203.57 583.9 188.68 583.33 182.47 581.97 176.75 579.24 166.98 567.6 162.71 558.74 159.74 551.95 156.93 544.34 154.28 536.04 151.32 527.38 148.47 518.23 145.73 508.73 142.68 499.05 139.75 489.16 136.99 479.18 133.99 469.14 131.22 459.08 128.76 449.1 126.21 439.1 124.09 429.2 122.47 419.43 120.96 409.66 120.12 400.24 119.97 391.16 120.09 382.05 120.96 373.24 122.56 364.69 124.5 356.05 127.17 347.6 130.54 339.29 134.2 330.81 138.49 322.37 143.35 313.93 148.39 305.23 153.89 296.43 159.8 287.49 165.74 278.23 171.98 268.78 178.45 259.15 184.81 249.26 191.34 239.25 197.99 229.19 204.44 219.09 210.97 209.14 217.57 199.52 223.93 190.22 230.37 181.53 236.89 173.67 243.18 166.52 249.58 160.45 256.11 155.58 262.45 151.61 268.97 148.87 275.68 147.32 282.25 146.41 289.06 146.37 296.12 147 303.08 147.53 310.33 148.17 317.85 148.64 325.33 148.21 333.11 147.17 341.19 145.37 349.24 142.36 357.61 138.63 366.3 134.37 374.97 129.43 383.98 124.55 393.32 120.14" stroke-dasharray="7 7" transform="rotate(4.04, 400, 400)" opacity="0.09"></path><path d="M398.86 131C407.94 127.09 417.17 124.42 426.51 123.19 435.88 123.12 445.38 124.68 455 127.8 464.65 131.97 474.43 137.36 484.3 143.68 494.2 150.34 504.19 157.38 514.2 164.49 524.2 171.16 534.19 177.49 544.08 183.34 553.87 188.32 563.47 192.73 572.77 196.63 581.82 199.7 590.43 202.46 598.46 205.04 606.05 207.16 612.91 209.42 618.9 211.95 626.49 215.97 635.46 227.3 636.73 234.9 636.7 240.57 635.74 246.92 633.96 253.88 632.07 261.18 629.7 268.99 627.07 277.22 624.91 285.7 622.92 294.49 621.34 303.48 620.82 312.63 621.08 321.89 622.24 331.19 624.8 340.56 628.36 349.9 632.9 359.14 638.65 368.4 645.09 377.53 651.96 386.46 659.35 395.38 666.38 403.89 672.73 411.95 678.65 420.02 683.33 427.66 686.58 434.89 688.73 442.16 689.18 449.08 687.92 455.69 685.39 462.43 681.22 468.99 675.57 475.45 668.92 482.21 661.09 489.06 652.33 496.12 643.05 503.69 633.21 511.68 623.04 520.17 612.85 529.35 602.62 539.15 592.52 549.61 582.75 560.68 573.25 572.28 564.09 584.26 555.41 596.41 547.08 608.5 539.09 620.19 531.57 631.22 524.3 641.19 517.24 649.67 510.54 656.62 503.93 661.52 497.34 664.16 490.97 664.92 484.52 663.45 477.93 659.91 471.45 655.24 464.75 649.36 457.79 642.86 450.87 636.96 443.65 631.76 436.12 627.89 428.59 626.35 420.72 627.02 412.53 630.06 404.33 635.75 395.8 643.41 386.98 652.46 378.15 662.5 369.24 672.08 360.3 680.37 351.38 687.19 342.45 691.41 333.56 692.7 324.72 691.38 315.96 687.06 307.32 680.07 298.76 671.14 290.37 660.5 282.19 648.8 274.13 636.81 266.33 624.92 258.83 613.63 251.48 603.48 244.48 594.58 237.86 587.06 231.4 581.19 225.35 576.66 219.74 573.25 211.76 570.45 198.13 567.83 192.41 566.4 187.07 564.33 177.79 555.51 173.64 548.51 170.73 543.11 167.95 536.88 165.3 529.92 162.36 522.62 159.5 514.74 156.75 506.4 153.69 497.86 150.74 488.98 147.96 479.88 144.95 470.7 142.16 461.37 139.67 451.98 137.11 442.56 134.94 433.12 133.27 423.68 131.71 414.25 130.8 405.03 130.55 396.05 130.56 387.03 131.3 378.2 132.76 369.53 134.54 360.77 137.04 352.11 140.22 343.51 143.69 334.75 147.79 325.98 152.45 317.14 157.3 308.1 162.64 298.93 168.38 289.63 174.17 280.12 180.29 270.47 186.66 260.71 192.95 250.83 199.43 240.95 206.05 231.16 212.49 221.48 219.04 212.1 225.66 203.18 232.07 194.71 238.55 186.95 245.11 180.08 251.45 173.95 257.89 168.89 264.43 164.98 270.79 161.87 277.3 159.87 283.96 158.91 290.49 158.41 297.22 158.62 304.16 159.32 311.01 159.8 318.1 160.26 325.45 160.47 332.74 159.76 340.32 158.43 348.18 156.38 356 153.2 364.13 149.37 372.58 145.07 381 140.17 389.76 135.35 398.85 131.01" stroke-dasharray="10 4" transform="rotate(8.08, 400, 400)" opacity="0.13"></path><path d="M404.45 141.87C413.28 138 422.23 135.3 431.28 133.96 440.36 133.69 449.55 134.97 458.83 137.73 468.13 141.52 477.52 146.52 486.96 152.48 496.4 158.87 505.87 165.73 515.31 172.78 524.71 179.54 534.02 186.08 543.17 192.26 552.17 197.68 560.92 202.61 569.29 207.03 577.4 210.65 585.01 213.9 592.02 216.88 601.52 220.53 615.68 228.01 620.01 232.53 622.53 237.74 622.37 251.51 620.16 260.1 618.46 266.3 616.42 273.03 614.23 280.2 612.54 287.61 611.08 295.38 610.03 303.42 609.98 311.61 610.65 320 612.14 328.5 614.88 337.08 618.51 345.71 622.98 354.31 628.53 362.95 634.67 371.52 641.16 380 648.11 388.47 654.73 396.62 660.74 404.45 666.38 412.29 670.92 419.82 674.16 427.08 676.46 434.4 677.23 441.51 676.43 448.46 674.51 455.57 671.06 462.65 666.21 469.77 660.41 477.2 653.46 484.84 645.56 492.76 637.1 501.15 628.01 509.96 618.49 519.26 608.84 529.09 599.05 539.43 589.25 550.24 579.65 561.42 570.21 572.88 561.01 584.43 552.18 595.86 543.64 606.95 535.38 617.37 527.52 626.95 519.9 635.3 512.5 642.08 505.43 647.35 498.48 650.69 491.61 651.95 484.96 651.6 478.29 649.34 471.55 645.37 464.95 640.63 458.2 635.01 451.27 629.05 444.4 623.87 437.3 619.47 429.96 616.41 422.64 615.54 415.05 616.69 407.2 619.96 399.34 625.62 391.22 633 382.84 641.6 374.47 651.09 366.05 660.18 357.63 668.13 349.24 674.82 340.86 679.21 332.55 680.97 324.29 680.4 316.12 677.06 308.1 671.19 300.16 663.43 292.39 653.89 284.85 643.14 277.42 631.85 270.24 620.34 263.38 609.11 256.65 598.66 250.24 589.13 244.22 580.73 238.32 573.72 232.81 567.92 227.71 563.22 220.42 558.5 207.9 553.12 202.59 551.09 197.56 549.04 188.66 541.81 184.6 536.17 181.72 531.85 178.95 526.76 176.3 520.94 173.35 514.86 170.48 508.14 167.7 500.89 164.63 493.46 161.68 485.59 158.88 477.38 155.86 469.09 153.07 460.52 150.56 451.76 147.98 442.98 145.79 434.04 144.08 424.98 142.48 415.92 141.49 406.96 141.15 398.1 141.07 389.22 141.68 380.41 142.98 371.66 144.6 362.84 146.92 354.04 149.9 345.22 153.17 336.29 157.05 327.29 161.5 318.21 166.15 308.98 171.28 299.65 176.82 290.21 182.45 280.67 188.41 271.05 194.64 261.44 200.84 251.83 207.23 242.33 213.78 233.06 220.2 224.02 226.73 215.41 233.35 207.37 239.79 199.84 246.3 193.1 252.88 187.27 259.27 182.16 265.75 178.07 272.32 175.05 278.71 172.72 285.22 171.35 291.87 170.86 298.39 170.67 305.07 171.02 311.94 171.7 318.71 172.05 325.69 172.29 332.91 172.21 340.06 171.2 347.47 169.59 355.14 167.3 362.77 163.96 370.7 160.05 378.91 155.73 387.11 150.88 395.61 146.14 404.44 141.87" stroke-dasharray="9 8" transform="rotate(12.12, 400, 400)" opacity="0.16"></path><path d="M409.77 152.73C418.32 148.92 426.96 146.21 435.69 144.76 444.43 144.31 453.25 145.31 462.13 147.72 471.02 151.11 479.94 155.71 488.87 161.28 497.79 167.34 506.67 173.95 515.46 180.86 524.18 187.62 532.75 194.28 541.09 200.7 549.27 206.5 557.13 211.87 564.58 216.79 571.75 220.96 578.4 224.74 584.43 228.2 592.52 232.44 604.14 240.31 607.47 244.56 609.28 249.15 608.56 260.9 606.51 268.21 605.07 273.46 603.4 279.22 601.65 285.44 600.44 291.84 599.48 298.64 598.93 305.76 599.32 313.02 600.36 320.53 602.12 328.24 605.02 336.02 608.68 343.93 613.06 351.91 618.4 359.92 624.23 367.97 630.35 376.02 636.89 384.08 643.11 391.94 648.77 399.6 654.13 407.28 658.5 414.79 661.72 422.16 664.13 429.6 665.16 436.96 664.78 444.31 663.39 451.81 660.6 459.4 656.51 467.14 651.52 475.16 645.42 483.44 638.37 492.05 630.75 501.03 622.44 510.4 613.64 520.17 604.63 530.3 595.36 540.79 585.99 551.54 576.7 562.43 567.47 573.35 558.38 584.11 549.55 594.52 540.93 604.36 532.54 613.32 524.47 621.34 516.62 628.05 508.97 633.19 501.61 636.92 494.39 638.87 487.28 638.95 480.38 637.72 473.51 634.89 466.63 630.71 459.89 626.05 453.07 620.81 446.15 615.47 439.29 611.02 432.28 607.42 425.1 605.12 417.94 604.86 410.58 606.43 403.03 609.9 395.48 615.48 387.72 622.58 379.77 630.73 371.82 639.7 363.88 648.3 355.97 655.89 348.07 662.43 340.23 666.93 332.49 669.09 324.79 669.19 317.21 666.74 309.79 661.94 302.44 655.32 295.28 646.91 288.36 637.18 281.53 626.72 274.96 615.8 268.7 604.86 262.54 594.37 256.7 584.49 251.22 575.47 245.84 567.56 240.82 560.7 236.17 554.84 229.49 548.25 217.93 539.7 212.97 536.65 208.18 534.09 199.55 527.27 195.54 522.44 191.29 516.72 182.83 501.67 178.59 492.5 175.51 486.05 172.55 479.11 169.74 471.74 166.72 464.29 163.93 456.48 161.41 448.36 158.83 440.22 156.63 431.81 154.88 423.17 153.25 414.53 152.21 405.86 151.78 397.18 151.59 388.5 152.08 379.79 153.23 371.06 154.69 362.29 156.82 353.46 159.58 344.57 162.64 335.61 166.3 326.56 170.5 317.44 174.93 308.24 179.83 298.96 185.15 289.64 190.58 280.31 196.36 271 202.41 261.78 208.47 252.68 214.74 243.8 221.19 235.27 227.54 227.06 234.03 219.36 240.61 212.31 247.04 205.81 253.56 200.11 260.15 195.32 266.57 191.18 273.07 188 279.66 185.78 286.08 184.1 292.61 183.25 299.26 183.11 305.77 183.11 312.43 183.5 319.24 184.09 325.96 184.25 332.87 184.22 339.98 183.83 347.02 182.53 354.29 180.64 361.79 178.13 369.26 174.65 376.98 170.67 384.98 166.36 392.95 161.57 401.21 156.93 409.76 152.74" stroke-dasharray="8 10" transform="rotate(16.16, 400, 400)" opacity="0.20"></path><path d="M414.48 163.6C422.73 159.85 431.04 157.13 439.4 155.6 447.76 154.96 456.17 155.7 464.59 157.76 473 160.76 481.41 164.93 489.76 170.08 498.09 175.77 506.32 182.08 514.41 188.77 522.41 195.43 530.21 202.12 537.72 208.68 545.06 214.76 552.04 220.5 558.58 225.87 564.85 230.56 570.59 234.88 575.71 238.85 587.26 248.18 595.8 261.18 595.72 266.19 594.84 271.64 591.29 284.98 589.36 292.87 588.61 298.4 588.13 304.34 588.04 310.65 588.82 317.04 590.18 323.75 592.19 330.72 595.2 337.74 598.87 344.98 603.14 352.38 608.26 359.8 613.79 367.36 619.55 375.04 625.68 382.71 631.51 390.32 636.82 397.86 641.9 405.41 646.09 412.93 649.26 420.42 651.74 427.99 652.98 435.6 652.96 443.29 652.05 451.12 649.86 459.13 646.46 467.34 642.24 475.77 636.95 484.49 630.74 493.51 623.95 502.79 616.45 512.39 608.41 522.26 600.09 532.33 591.44 542.57 582.6 552.88 573.74 563.12 564.84 573.17 556 582.84 547.32 592 538.77 600.42 530.38 607.85 522.24 614.29 514.28 619.42 506.49 623.02 498.95 625.38 491.55 626.13 484.27 625.27 477.18 623.39 470.16 620.21 463.17 615.99 456.31 611.56 449.43 606.8 442.51 602.13 435.65 598.42 428.71 595.59 421.66 594.01 414.64 594.31 407.49 596.25 400.21 599.86 392.94 605.35 385.51 612.15 377.96 619.87 370.41 628.32 362.9 636.43 355.48 643.66 348.06 650.02 340.73 654.58 333.54 657.07 326.37 657.75 319.34 656.12 312.5 652.31 305.71 646.8 299.13 639.52 292.8 630.86 286.52 621.35 280.52 611.16 274.81 600.72 269.18 590.44 263.86 580.48 258.87 571.11 253.95 562.58 249.36 554.89 245.11 548.06 238.95 539.78 228.19 527.95 223.5 523.61 218.9 520.11 210.45 512.68 206.45 508.13 202.19 503.03 193.67 489.88 189.4 481.82 186.32 476.17 183.36 470 180.54 463.37 177.54 456.67 174.75 449.56 172.23 442.06 169.67 434.53 167.46 426.66 165.69 418.47 164.03 410.28 162.93 401.96 162.43 393.56 162.15 385.16 162.51 376.65 163.51 368.07 164.81 359.47 166.74 350.77 169.29 341.99 172.12 333.18 175.54 324.29 179.49 315.35 183.67 306.4 188.32 297.43 193.39 288.48 198.59 279.6 204.15 270.82 209.99 262.24 215.87 253.86 221.99 245.8 228.29 238.16 234.54 230.91 240.93 224.23 247.43 218.23 253.83 212.77 260.32 208.1 266.88 204.3 273.3 201.06 279.81 198.67 286.39 197.13 292.83 195.99 299.36 195.51 305.99 195.6 312.51 195.68 319.14 196.02 325.91 196.44 332.59 196.36 339.43 196.03 346.43 195.32 353.38 193.73 360.52 191.58 367.86 188.86 375.17 185.27 382.7 181.24 390.47 176.95 398.22 172.24 406.22 167.7 414.47 163.6" stroke-dasharray="11 10" transform="rotate(20.200000000000003, 400, 400)" opacity="0.24"></path><path d="M418.29 174.46C426.21 170.79 434.16 168.08 442.11 166.46 450.07 165.67 458.01 166.14 465.93 167.87 473.83 170.48 481.67 174.22 489.41 178.93 497.11 184.2 504.67 190.14 512.03 196.54 519.29 203.02 526.3 209.64 532.99 216.24 539.52 222.49 545.65 228.51 551.33 234.23 556.76 239.38 561.67 244.19 565.99 248.68 575.52 259.4 582.22 273.39 582.03 278.24 581.31 283.27 578.65 295.19 577.37 302.18 577.05 309.66 579.31 326.59 582.33 335.93 585.42 342.29 589.06 348.93 593.22 355.81 598.11 362.71 603.34 369.83 608.74 377.16 614.48 384.5 619.92 391.87 624.9 399.29 629.69 406.72 633.69 414.22 636.79 421.8 639.3 429.44 640.71 437.21 640.99 445.13 640.5 453.16 638.84 461.4 636.07 469.86 632.56 478.49 628.05 487.36 622.64 496.47 616.68 505.74 609.99 515.21 602.74 524.82 595.16 534.46 587.19 544.11 578.95 553.64 570.63 562.93 562.19 571.86 553.71 580.24 545.31 588.02 536.97 594.95 528.72 600.82 520.65 605.75 512.71 609.4 504.91 611.65 497.3 612.84 489.82 612.63 482.46 611.06 475.26 608.74 468.14 605.42 461.1 601.32 454.17 597.25 447.25 593.04 440.35 589.06 433.51 586.09 426.64 584 419.72 583.08 412.83 583.87 405.87 586.13 398.84 589.85 391.82 595.22 384.71 601.72 377.52 609.01 370.33 616.94 363.24 624.58 356.26 631.45 349.29 637.58 342.45 642.16 335.76 644.91 329.09 646.09 322.58 645.2 316.28 642.31 310.01 637.84 303.96 631.67 298.16 624.1 292.4 615.61 286.91 606.3 281.7 596.52 276.54 586.67 271.67 576.9 267.11 567.45 262.59 558.58 258.37 550.33 254.46 542.77 250.55 536.07 246.92 530.08 243.58 524.74 238.61 518.16 229.66 507.71 225.55 503.14 221.3 498.88 213.01 489.16 208.88 483.35 205.89 479.29 202.97 474.76 200.13 469.73 197.05 464.64 194.09 459.07 191.27 453.04 188.3 446.96 185.53 440.44 183.02 433.5 180.48 426.54 178.28 419.19 176.5 411.47 174.82 403.74 173.68 395.84 173.1 387.79 172.74 379.75 172.98 371.57 173.83 363.28 174.96 354.99 176.7 346.59 179.02 338.11 181.62 329.66 184.79 321.14 188.47 312.6 192.38 304.12 196.76 295.67 201.56 287.32 206.5 279.11 211.8 271.08 217.41 263.32 223.07 255.82 228.98 248.7 235.1 242.07 241.19 235.85 247.45 230.21 253.83 225.27 260.14 220.82 266.55 217.11 273.04 214.2 279.43 211.74 285.9 210.03 292.44 209.02 298.87 208.27 305.39 208.05 311.98 208.24 318.48 208.31 325.08 208.51 331.78 208.7 338.41 208.34 345.17 207.7 352.07 206.65 358.92 204.78 365.93 202.39 373.11 199.49 380.25 195.81 387.59 191.76 395.12 187.5 402.63 182.89 410.35 178.46 418.28 174.46" stroke-dasharray="6 10" transform="rotate(24.24, 400, 400)" opacity="0.28"></path><path d="M420.96 185.32C428.54 181.74 436.09 179.04 443.6 177.36 451.11 176.42 458.57 176.65 465.95 178.05 473.3 180.27 480.56 183.57 487.66 187.82 494.72 192.65 501.58 198.18 508.22 204.22 514.75 210.43 521 216.88 526.9 223.41 532.65 229.72 538 235.91 542.89 241.89 547.57 247.41 551.74 252.65 555.36 257.59 560.13 264.12 566.38 275.45 567.88 280.6 568.33 290.3 566.33 306.47 565.68 312.87 565.99 319.63 569.25 334.98 572.54 343.53 575.67 349.35 579.28 355.49 583.3 361.93 587.96 368.37 592.88 375.11 597.93 382.13 603.28 389.15 608.36 396.3 613 403.56 617.5 410.85 621.31 418.27 624.3 425.84 626.82 433.46 628.35 441.25 628.88 449.21 628.75 457.27 627.56 465.52 625.37 473.97 622.51 482.51 618.72 491.25 614.08 500.13 608.91 509.06 603.03 518.07 596.56 527.08 589.75 535.99 582.51 544.76 574.94 553.24 567.23 561.38 559.33 569.03 551.33 576.01 543.33 582.35 535.32 587.8 527.34 592.2 519.47 595.73 511.68 598.09 503.98 599.19 496.43 599.43 488.98 598.48 481.64 596.44 474.44 593.9 467.31 590.6 460.27 586.78 453.33 583.16 446.44 579.56 439.59 576.3 432.8 574.04 426.02 572.64 419.24 572.32 412.49 573.56 405.71 576.08 398.92 579.86 392.14 585.09 385.32 591.29 378.48 598.14 371.63 605.58 364.92 612.75 358.36 619.24 351.81 625.14 345.4 629.68 339.18 632.63 332.96 634.23 326.94 633.98 321.12 631.93 315.33 628.44 309.75 623.34 304.43 616.87 299.13 609.43 294.08 601.08 289.31 592.12 284.56 582.89 280.09 573.53 275.89 564.26 271.71 555.33 267.79 546.8 264.15 538.78 260.49 531.41 257.07 524.64 253.9 518.44 249.14 510.43 240.41 497.31 236.33 491.66 232.08 486.57 223.72 476.04 219.55 470.22 215.08 464.11 206.23 449.89 201.95 441.71 199.01 436.1 196.27 430.06 193.79 423.61 191.27 417.14 189.09 410.28 187.3 403.03 185.62 395.79 184.44 388.34 183.8 380.73 183.36 373.13 183.49 365.38 184.19 357.52 185.15 349.68 186.7 341.75 188.8 333.76 191.17 325.82 194.07 317.86 197.47 309.93 201.1 302.11 205.19 294.38 209.69 286.81 214.35 279.42 219.37 272.28 224.69 265.47 230.1 258.95 235.77 252.85 241.65 247.27 247.55 242.07 253.62 237.47 259.83 233.52 266 229.99 272.28 227.14 278.66 224.99 284.96 223.18 291.35 221.99 297.81 221.38 304.19 220.88 310.64 220.78 317.17 220.96 323.61 220.92 330.14 220.92 336.76 220.82 343.32 220.16 349.98 219.19 356.76 217.82 363.49 215.68 370.35 213.07 377.34 210.02 384.31 206.27 391.43 202.22 398.7 198.02 405.95 193.52 413.37 189.22 420.95 185.33" stroke-dasharray="6 5" transform="rotate(28.28, 400, 400)" opacity="0.32"></path><path d="M422.33 196.19C429.53 192.7 436.66 190.03 443.71 188.29 450.76 187.22 457.71 187.23 464.53 188.31 471.33 190.16 477.99 193.02 484.45 196.8 490.87 201.16 497.06 206.23 502.99 211.86 508.83 217.73 514.36 223.92 519.53 230.27 524.57 236.52 529.2 242.75 533.4 248.87 537.42 254.64 540.96 260.21 544 265.54 548.01 272.75 553.21 285.52 554.47 291.29 555.1 301.81 554.35 318.14 554.32 324.27 555.19 330.62 559.31 344.92 562.82 352.89 565.97 358.31 569.5 364.05 573.37 370.13 577.79 376.2 582.41 382.59 587.13 389.32 592.1 396.04 596.81 402.95 601.13 410.02 605.35 417.1 608.94 424.36 611.82 431.78 614.3 439.24 615.92 446.89 616.65 454.7 616.82 462.56 616.05 470.59 614.36 478.77 612.1 486.96 608.96 495.27 605.04 503.62 600.62 511.93 595.52 520.2 589.83 528.34 583.8 536.28 577.31 543.96 570.45 551.23 563.42 558.1 556.14 564.39 548.69 569.95 541.2 574.9 533.63 578.96 526.03 582.02 518.48 584.34 510.96 585.6 503.49 585.79 496.12 585.31 488.82 583.88 481.61 581.58 474.49 579 467.45 575.89 460.5 572.46 453.63 569.36 446.82 566.4 440.07 563.85 433.38 562.28 426.72 561.52 420.1 561.74 413.51 563.35 406.93 566.08 400.37 569.9 393.83 574.97 387.29 580.85 380.77 587.28 374.25 594.23 367.89 600.93 361.72 607.04 355.54 612.68 349.54 617.15 343.73 620.23 335.13 622.33 319 616.55 311.51 609.09 306.61 602.73 301.95 595.4 297.54 587.35 293.14 578.91 288.99 570.15 285.1 561.29 281.19 552.57 277.52 544.03 274.09 535.83 270.62 528.08 267.36 520.78 264.32 513.94 261.18 507.68 258.22 501.86 255.43 496.43 251.09 489.19 242.75 476.34 238.66 470.3 234.31 464.5 225.62 452.15 221.3 445.35 218.26 440.75 215.34 435.8 212.56 430.5 209.66 425.19 206.97 419.51 204.52 413.47 202.04 407.42 199.89 401 198.11 394.22 196.42 387.45 195.22 380.49 194.52 373.38 194.01 366.28 194.03 359.06 194.59 351.75 195.4 344.47 196.75 337.14 198.62 329.79 200.75 322.51 203.39 315.26 206.5 308.1 209.84 301.06 213.62 294.18 217.81 287.51 222.15 281.04 226.86 274.87 231.88 269.07 236.99 263.55 242.38 258.48 247.99 253.92 253.64 249.69 259.47 246.03 265.46 242.97 271.44 240.25 277.54 238.11 283.75 236.57 289.91 235.26 296.16 234.44 302.49 234.06 308.76 233.69 315.1 233.59 321.51 233.65 327.86 233.43 334.29 233.17 340.78 232.76 347.23 231.77 353.76 230.48 360.38 228.8 366.96 226.42 373.65 223.62 380.43 220.44 387.19 216.65 394.07 212.63 401.05 208.5 408.03 204.13 415.12 199.96 422.32 196.19" stroke-dasharray="3 5" transform="rotate(32.32, 400, 400)" opacity="0.35"></path><path d="M422.31 207.05C429.11 203.67 435.8 201.04 442.38 199.26 448.94 198.08 455.37 197.88 461.64 198.66 467.89 200.15 473.95 202.58 479.8 205.89 485.6 209.76 491.15 214.34 496.42 219.51 501.61 224.97 506.48 230.8 510.99 236.89 515.4 242.97 519.41 249.12 523.01 255.24 526.48 261.14 529.5 266.91 532.08 272.51 535.5 280.28 539.99 294.36 541.14 300.78 542.16 312.37 542.73 329.53 543.27 335.63 544.64 341.85 549.5 355.58 553.16 363.16 556.29 368.3 559.73 373.76 563.44 379.54 567.61 385.31 571.94 391.41 576.32 397.84 580.93 404.27 585.29 410.9 589.29 417.7 593.21 424.5 596.59 431.49 599.34 438.64 601.76 445.8 603.43 453.13 604.31 460.58 604.73 468.05 604.31 475.63 603.07 483.27 601.33 490.89 598.8 498.52 595.53 506.1 591.82 513.56 587.46 520.89 582.53 527.97 577.26 534.81 571.52 541.27 565.4 547.26 559.08 552.83 552.46 557.78 545.64 562 538.73 565.66 531.69 568.48 524.57 570.4 517.45 571.71 510.31 572.12 503.18 571.63 496.1 570.68 489.05 568.97 482.07 566.62 475.15 564.17 468.3 561.37 461.52 558.42 454.8 555.89 448.14 553.59 441.56 551.73 435.02 550.8 428.53 550.63 422.1 551.33 415.7 553.26 409.34 556.14 403.03 559.95 396.73 564.84 390.47 570.4 384.26 576.41 378.05 582.89 372.02 589.13 366.2 594.86 360.37 600.22 354.73 604.57 349.3 607.74 341.26 610.34 326.23 606.73 319.28 600.76 314.71 595.45 310.38 589.16 306.28 582.1 302.16 574.55 298.28 566.56 294.62 558.31 290.93 550.02 287.45 541.74 284.18 533.62 280.85 525.77 277.7 518.21 274.74 511 271.67 504.22 268.76 497.8 265.98 491.74 261.66 483.44 253.26 468.58 249.13 461.7 244.76 455.19 236.05 442.01 231.74 435.09 228.74 430.47 225.85 425.6 223.11 420.46 220.27 415.33 217.62 409.91 215.22 404.19 212.8 398.47 210.68 392.45 208.92 386.13 207.24 379.81 206.02 373.35 205.27 366.79 204.69 360.24 204.62 353.6 205.05 346.93 205.69 340.29 206.85 333.64 208.51 327.04 210.39 320.51 212.76 314.06 215.59 307.76 218.62 301.58 222.09 295.61 225.94 289.9 229.96 284.38 234.33 279.19 239.01 274.38 243.8 269.83 248.86 265.71 254.16 262.08 259.52 258.73 265.07 255.88 270.78 253.57 276.51 251.49 282.38 249.91 288.36 248.82 294.33 247.84 300.39 247.23 306.52 246.95 312.63 246.58 318.81 246.37 325.04 246.24 331.24 245.77 337.51 245.21 343.84 244.46 350.13 243.15 356.48 241.54 362.9 239.59 369.3 236.99 375.77 234.03 382.3 230.76 388.83 226.96 395.43 222.98 402.1 218.94 408.76 214.71 415.5 210.69 422.3 207.06" stroke-dasharray="6 10" transform="rotate(36.36, 400, 400)" opacity="0.39"></path><path d="M420.9 217.91C427.28 214.65 433.52 212.07 439.61 210.27 445.69 208.99 451.61 208.6 457.34 209.11 468.72 212.01 479.24 218.29 488.65 227.22 497.78 237.45 505.61 249.02 511.95 261.1 517.87 272.67 522.25 283.9 525.05 294.56 527.69 304.02 529.09 313.01 529.53 321.73 530.6 329.57 531.46 337.63 532.53 346.19 535.26 354.35 538.89 363.37 543.55 373.39 546.64 378.35 549.97 383.6 553.5 389.14 557.42 394.66 561.46 400.49 565.51 406.63 569.77 412.76 573.79 419.07 577.47 425.53 581.11 431.99 584.26 438.6 586.87 445.33 591.23 458.79 592.81 472.66 591.51 486.57 588.51 500.19 582.73 513.39 574.63 525.52 565.28 536.56 554.22 545.69 542.04 552.2 529.41 556.83 516.19 558.42 502.79 556.94 489.44 554.33 476.12 549.91 463.04 544.75 450.12 541.48 437.41 539.92 425 541.08 418.82 543.26 412.71 546.26 406.66 550.02 400.62 554.7 394.64 559.94 388.73 565.55 382.81 571.56 377.11 577.35 371.6 582.7 366.09 587.76 360.79 591.97 355.69 595.15 345.47 599.05 336.07 597.84 327.56 591.84 318.97 582.47 311.21 569.76 304.31 555.06 297.2 539.67 290.8 524.15 285.07 509.29 278.91 495.56 273.2 482.93 267.91 471.36 261.94 460.96 256.22 451.09 250.78 441.39 244.65 432.23 238.85 422.68 233.59 412.52 230.82 407.48 228.23 402.24 225.89 396.78 223.53 391.33 221.46 385.66 219.72 379.77 218.07 373.88 216.84 367.91 216.05 361.91 215.41 355.91 215.25 349.9 215.55 343.9 216.75 332.01 219.87 320.39 224.74 309.42 230.39 298.94 237.62 289.49 246.13 281.51 255.12 274.31 265.12 268.8 275.87 265.15 286.76 262.05 298.19 260.41 309.98 259.9 321.71 258.71 333.75 257.56 345.96 255.88 358.1 252.11 370.46 247.11 382.97 240.96 389.22 237.18 395.51 233.28 401.83 229.36 408.15 225.28 414.51 221.42 420.89 217.92" stroke-dasharray="5 4" transform="rotate(40.400000000000006, 400, 400)" opacity="0.43"></path><path d="M418.2 228.78C430.08 222.81 441.31 219.67 451.75 219.65 462.1 221.85 471.54 227.16 479.88 235.04 487.99 244.29 494.88 255.04 500.41 266.55 505.67 277.91 509.59 289.24 512.2 300.2 514.8 310.26 516.43 319.92 517.33 329.26 518.92 337.81 520.4 346.41 522.11 355.27 525.31 363.72 529.24 372.79 533.99 382.61 540.41 392.3 547.47 402.95 554.71 414.59 562.64 426.23 569.37 438.36 574.41 450.78 578.64 463.15 580.43 475.65 579.71 487.88 577.56 499.73 572.92 510.86 566.12 520.68 558.18 529.47 548.58 536.31 537.78 540.71 526.46 543.64 514.43 544.01 502.07 541.94 489.65 539.35 477.13 535.55 464.74 531.48 452.45 529.41 440.31 528.99 428.46 530.98 416.68 536.63 405.12 544.8 393.9 554.69 382.67 565.95 372.25 575.66 362.66 582.49 353.02 586.8 344.18 586.69 336.15 582.32 328.02 574.91 320.65 564.21 314.02 551.33 307.16 537.39 300.91 522.81 295.23 508.4 289.12 494.59 283.4 481.53 278.04 469.34 272.07 458.07 266.34 447.39 260.89 437.1 254.85 427.31 249.15 417.46 244 407.36 238.57 397.38 233.97 386.9 230.53 375.92 227.38 364.94 225.9 354 226.1 343.31 227 332.75 229.68 322.68 233.99 313.41 239.01 304.54 245.53 296.77 253.29 290.41 261.53 284.6 270.79 280.29 280.8 277.52 291.01 274.95 301.8 273.47 312.95 272.74 324.13 271.14 335.62 269.37 347.25 267 358.87 262.7 370.66 257.34 382.51 251.06 394.36 243.31 406.3 235.58 418.18 228.78" stroke-dasharray="9 10" transform="rotate(44.44, 400, 400)" opacity="0.47"></path><path d="M414.36 239.64C425.35 233.91 435.64 230.71 445.1 230.3 454.48 231.83 462.95 236.22 470.36 243.04 477.62 251.22 483.74 261 488.66 271.74 493.43 282.62 497.07 293.72 499.63 304.69 502.31 315.07 504.24 325.16 505.62 334.94 507.7 344.09 509.74 353.17 512 362.33 515.56 371.12 519.71 380.3 524.48 389.97 530.63 399.52 537.24 409.77 543.9 420.73 551.15 431.69 557.31 442.88 561.97 454.09 566.02 465.23 567.95 476.19 567.7 486.63 566.27 496.66 562.62 505.74 557.02 513.4 550.4 520.17 542.18 525.07 532.76 527.8 522.8 529.49 512.03 529.1 500.81 526.88 489.45 524.61 477.87 521.61 466.31 518.7 454.79 517.76 443.36 518.36 432.16 521.04 421 526.82 410.06 534.65 399.44 543.82 388.82 554.18 378.98 563.2 369.93 569.77 360.82 574.34 352.45 575.14 344.83 572.2 337.08 566.61 330 557.89 323.58 546.9 316.91 534.67 310.76 521.41 305.11 507.89 299.04 494.54 293.31 481.56 287.91 469.22 281.96 457.5 276.25 446.34 270.83 435.67 264.91 425.42 259.35 415.33 254.35 405.3 249.12 395.39 244.68 385.31 241.33 375.08 238.25 364.84 236.71 354.93 236.72 345.52 237.34 336.19 239.59 327.53 243.34 319.78 247.75 312.31 253.55 305.95 260.54 300.87 268 296.12 276.46 292.64 285.66 290.38 295.11 288.04 305.15 286.46 315.58 285.33 326.08 283.2 336.9 280.79 347.86 277.77 358.84 273.02 369.96 267.39 381.08 261.05 392.22 253.51 403.36 246.11 414.36 239.64" stroke-dasharray="3 10" transform="rotate(48.48, 400, 400)" opacity="0.51"></path><path d="M409.62 250.5C419.72 245.03 429.1 241.81 437.65 241.06 446.14 241.99 453.76 245.5 460.39 251.25 466.92 258.33 472.44 267.04 476.93 276.82 481.36 286.96 484.86 297.56 487.48 308.23 490.31 318.59 492.57 328.81 494.42 338.79 496.95 348.3 499.48 357.71 502.19 367.06 506.01 376.11 510.28 385.35 515 394.84 520.86 404.24 527 414.05 533.1 424.28 539.69 434.52 545.28 444.69 549.56 454.62 553.38 464.46 555.38 473.86 555.49 482.53 554.66 490.81 551.88 498.02 547.33 503.8 541.92 508.88 535.01 512.27 526.91 513.81 518.3 514.71 508.82 514.01 498.8 511.98 488.59 510.26 478.06 508.19 467.45 506.41 456.82 506.52 446.19 508 435.72 511.23 425.29 517.05 415.01 524.49 405.03 532.96 395.03 542.44 385.75 550.74 377.2 556.99 368.58 561.7 360.64 563.22 353.36 561.51 345.95 557.54 339.11 550.7 332.85 541.62 326.34 531.23 320.28 519.56 314.64 507.3 308.62 494.86 302.9 482.46 297.48 470.43 291.59 458.75 285.94 447.51 280.6 436.76 274.84 426.32 269.46 416.18 264.62 406.31 259.62 396.55 255.38 386.87 252.14 377.34 249.15 367.8 247.57 358.83 247.39 350.54 247.75 342.3 249.6 334.85 252.82 328.35 256.62 322.01 261.72 316.72 267.93 312.57 274.59 308.53 282.2 305.52 290.55 303.44 299.17 301.06 308.38 299.17 317.99 297.51 327.72 294.82 337.77 291.77 347.96 288.17 358.19 283.06 368.55 277.24 378.87 270.93 389.22 263.67 399.53 256.63 409.62 250.5" stroke-dasharray="11 8" transform="rotate(52.52, 400, 400)" opacity="0.54"></path><path d="M404.29 261.37C413.5 256.17 422 252.97 429.73 251.93 437.42 252.32 444.28 255 450.28 259.73 456.21 265.69 461.28 273.24 465.47 281.94 469.68 291.14 473.13 300.97 475.9 311.05 478.91 321.06 481.49 331.08 483.78 340.95 486.68 350.53 489.6 360.01 492.65 369.36 496.64 378.5 500.96 387.67 505.55 396.89 511.08 406.04 516.75 415.36 522.29 424.81 528.25 434.27 533.29 443.39 537.18 452.05 540.74 460.61 542.74 468.54 543.12 475.59 541.74 485.14 529.91 497.18 520.21 499.17 512.89 499.69 504.69 499.03 495.89 497.48 486.88 496.46 477.47 495.36 467.86 494.67 458.22 495.7 448.48 497.92 438.83 501.55 429.18 507.31 419.63 514.33 410.29 522.1 400.96 530.71 392.24 538.3 384.16 544.18 376.03 548.89 368.47 550.94 361.5 550.26 354.4 547.72 347.79 542.59 341.66 535.36 335.31 526.84 329.34 516.92 323.73 506.17 317.79 495.03 312.11 483.63 306.73 472.34 300.94 461.16 295.4 450.26 290.19 439.78 284.63 429.5 279.46 419.55 274.83 409.99 270.08 400.51 266.05 391.29 262.95 382.42 260.06 373.55 258.46 365.41 258.13 358.05 258.26 350.72 259.73 344.24 262.44 338.68 265.66 333.18 270.07 328.62 275.51 325.02 281.36 321.37 288.11 318.52 295.57 316.34 303.31 313.73 311.63 311.4 320.36 309.14 329.23 305.88 338.42 302.27 347.75 298.17 357.16 292.81 366.68 286.92 376.15 280.71 385.65 273.77 395.09 267.14 404.29 261.37" stroke-dasharray="8 6" transform="rotate(56.56, 400, 400)" opacity="0.58"></path><path d="M398.7 272.23C407.02 267.33 414.7 264.19 421.68 262.92 428.63 262.83 434.85 264.77 440.32 268.53 445.77 273.38 450.49 279.76 454.49 287.28 458.56 295.38 462.03 304.22 464.96 313.46 468.16 322.8 471.04 332.29 473.69 341.74 476.89 351.07 480.1 360.32 483.39 369.42 487.44 378.4 491.71 387.31 496.13 396.11 501.29 404.88 506.48 413.62 511.48 422.25 516.83 430.88 521.34 438.98 524.84 446.44 529.08 457.14 529.9 473.79 526.36 479.17 520.64 482.91 503.04 484.62 491.96 483.56 484.15 483.33 475.87 483.18 467.33 483.48 458.72 485.29 449.94 488.09 441.15 491.99 432.35 497.61 423.57 504.16 414.92 511.23 406.27 519.01 398.13 525.89 390.53 531.34 382.89 535.94 375.72 538.36 369.04 538.49 362.25 537.14 355.87 533.54 349.89 528.01 343.72 521.32 337.86 513.2 332.32 504.12 326.5 494.52 320.93 484.44 315.63 474.24 310.01 463.97 304.63 453.81 299.59 443.94 294.29 434.15 289.37 424.67 284.98 415.6 280.5 406.59 276.7 397.92 273.75 389.69 271 381.47 269.4 374.05 268.94 367.45 269.42 357.96 276.77 343.15 283.32 337.72 288.37 334.19 294.26 331.25 300.83 328.78 307.66 325.8 315.05 322.97 322.85 320.1 330.8 316.34 339.06 312.25 347.5 307.77 356 302.27 364.62 296.41 373.21 290.39 381.82 283.83 390.37 277.62 398.7 272.23" stroke-dasharray="2 11" transform="rotate(60.599999999999994, 400, 400)" opacity="0.62"></path><path d="M393.18 283.1C400.65 278.52 407.56 275.47 413.85 274.03 420.13 273.55 425.8 274.81 430.83 277.67 435.87 281.48 440.32 286.68 444.2 292.99 448.17 299.9 451.68 307.59 454.77 315.78 458.12 324.19 461.23 332.86 464.16 341.6 467.56 350.35 470.95 359.07 474.37 367.66 478.4 376.2 482.55 384.63 486.73 392.86 491.5 401.08 496.21 409.13 500.68 416.92 505.43 424.71 509.43 431.84 512.55 438.24 517.12 454.17 510.71 468.35 504.21 469.64 499.21 470.37 493.39 470.55 486.94 470.41 480.29 470.98 473.14 471.71 465.67 472.86 458.11 475.29 450.32 478.5 442.43 482.54 434.53 487.93 426.56 493.99 418.62 500.37 410.69 507.32 403.16 513.5 396.05 518.49 388.91 522.88 382.15 525.51 375.79 526.25 369.33 525.86 363.2 523.55 357.41 519.55 351.46 514.54 345.77 508.17 340.36 500.79 334.72 492.86 329.31 484.3 324.16 475.44 318.77 466.4 313.63 457.29 308.81 448.33 303.81 439.36 299.18 430.61 295.06 422.22 290.88 413.85 287.33 405.82 284.56 398.25 281.95 390.67 280.37 383.88 279.81 377.88 279.97 369.2 285.89 355.42 291.41 350.08 295.69 346.48 300.74 343.3 306.41 340.42 312.32 337.04 318.78 333.7 325.62 330.3 332.62 326.12 339.93 321.68 347.42 316.97 354.98 311.45 362.67 305.72 370.35 299.97 378.05 293.83 385.71 288.08 393.18 283.1" stroke-dasharray="6 7" transform="rotate(64.64, 400, 400)" opacity="0.66"></path><path d="M388.09 293.96C397.81 288.27 414.82 284.8 422.06 287.2 426.74 290.04 430.97 294.12 434.74 299.23 438.62 304.9 442.15 311.36 445.36 318.36 448.81 325.65 452.07 333.28 455.18 341.07 458.67 348.94 462.14 356.87 465.58 364.69 469.5 372.54 473.44 380.26 477.35 387.76 481.69 395.26 485.92 402.54 489.88 409.47 494.05 416.4 497.55 422.64 500.29 428.14 504.63 441.71 500.17 454.03 494.98 455.64 488.57 457.15 472.22 460.2 462.75 462.79 456.24 465.68 449.44 469.14 442.47 473.19 435.48 478.28 428.35 483.81 421.17 489.5 413.99 495.66 407.09 501.13 400.51 505.63 393.92 509.74 387.6 512.42 381.6 513.59 375.52 513.92 369.7 512.66 364.15 509.96 358.48 506.44 353.02 501.68 347.81 495.94 342.43 489.68 337.26 482.72 332.34 475.33 327.24 467.71 322.38 459.87 317.85 452.03 313.19 444.13 308.89 436.33 305.07 428.77 301.22 421.21 297.94 413.93 295.37 407.02 292.16 397 290.64 380.3 292.31 373.48 295.27 367.05 305.48 356.05 312.42 351 317.43 347.25 322.95 343.49 328.85 339.66 334.88 335.21 341.23 330.57 347.77 325.76 354.37 320.36 361.12 314.87 367.88 309.46 374.67 303.79 381.45 298.52 388.09 293.96" stroke-dasharray="3 1" transform="rotate(68.68, 400, 400)" opacity="0.70"></path><path d="M383.73 304.82C395.41 297.54 405.65 295.01 414.24 297.13 422.98 301.72 430.46 310.35 436.78 321.55 443.91 333.91 450.64 347.59 456.99 361.28 464.77 375.17 472.39 388.68 479.07 400.84 486.42 413.01 491.06 422.54 492.63 429.31 493.44 436.06 490.75 440.34 485.02 442.66 478.47 446.15 469.35 449.37 458.54 453.27 447.48 460.37 435.19 469.15 422.39 478.64 409.59 489.56 397.47 497.26 386.36 500.56 375.04 501.57 364.38 497.47 354.66 489.42 344.47 479.59 334.97 467.32 326.71 454.22 318.11 440.77 310.97 427.34 306.17 414.92 301.81 402.5 300.74 392.15 302.64 383.75 305.42 374.91 311.08 367.25 318.91 360.32 327.39 351.9 337.62 343.16 348.76 334.17 360.13 323.51 372.05 313.19 383.73 304.82" stroke-dasharray="4 6" transform="rotate(72.72, 400, 400)" opacity="0.73"></path><path d="M380.39 315.69C390.52 309.09 399.63 306.4 407.53 307.5 415.58 310.47 422.74 316.88 429.01 325.65 435.93 335.48 442.49 346.72 448.59 358.24 455.71 370.02 462.5 381.6 468.27 392.11 474.54 402.61 478.49 410.94 479.9 417.07 480.84 423.33 478.9 427.82 474.41 431 469.35 435.3 462.02 439.54 453.05 444.26 443.88 451.35 433.42 459.46 422.23 467.78 411.03 477.17 400.18 483.93 390.02 487.24 379.74 489.06 369.93 486.8 360.92 481.17 351.6 474.18 342.92 464.79 335.4 454.21 327.69 443.29 321.3 431.92 316.98 420.96 313 409.99 311.82 400.41 313.17 392.18 315.17 383.58 319.62 375.67 325.97 368.24 332.82 359.69 341.25 350.93 350.59 342.21 360.11 332.4 370.26 323.13 380.39 315.69" stroke-dasharray="4 10" transform="rotate(76.76, 400, 400)" opacity="0.77"></path><path d="M378.27 326.55C386.91 320.71 394.9 317.99 402.06 318.3 409.33 319.93 416.02 324.4 422.04 330.92 428.53 338.3 434.69 347.08 440.34 356.35 446.68 365.88 452.58 375.46 457.46 384.36 462.7 393.26 465.98 400.57 467.18 406.3 468.12 412.21 466.75 416.97 463.28 420.89 459.44 425.75 453.66 430.62 446.38 435.74 438.94 442.5 430.24 449.79 420.68 456.91 411.11 464.82 401.63 470.59 392.6 473.69 383.5 475.91 374.72 474.98 366.61 471.28 358.31 466.64 350.6 459.8 343.94 451.61 337.18 443.12 331.6 433.83 327.78 424.38 324.23 414.94 323.02 406.21 323.91 398.3 325.24 390.11 328.63 382.25 333.64 374.72 339 366.42 345.76 358.04 353.4 349.91 361.18 341.15 369.63 333.03 378.27 326.55" stroke-dasharray="4 8" transform="rotate(80.80000000000001, 400, 400)" opacity="0.81"></path><path d="M377.5 337.41C384.68 332.39 391.53 329.8 397.84 329.54 404.24 330.16 410.28 333 415.81 337.57 421.65 342.74 427.2 349.2 432.22 356.31 437.68 363.6 442.65 371.2 446.65 378.56 452.22 389.09 454.86 405.62 451.74 412.43 448.88 417.48 444.42 422.55 438.66 427.65 432.79 433.8 425.76 440.12 417.84 446.05 409.92 452.51 401.91 457.26 394.16 459.99 386.39 462.26 378.81 462.16 371.77 459.9 364.65 457.06 358.03 452.34 352.32 446.25 346.59 439.95 341.86 432.65 338.59 424.77 335.51 416.9 334.33 409.2 334.85 401.89 335.66 394.4 338.13 386.99 341.95 379.8 345.99 372.17 351.24 364.54 357.31 357.32 363.47 349.78 370.31 342.89 377.5 337.41" stroke-dasharray="11 3" transform="rotate(84.84, 400, 400)" opacity="0.85"></path><path d="M378.12 348.28C389.64 340.44 400.83 340.12 410.25 345.67 420.42 352.72 429.75 363.72 435.85 375.42 442.56 387.13 443.77 397.29 439.92 405.63 435.64 415.68 426.45 426.25 413.9 435.19 401.34 445.47 388.03 449.62 376.47 447.29 364.82 443.78 354.83 434.63 349.4 422.07 344.46 409.52 345.46 396.09 350.91 383.62 356.86 370.3 366.6 357.28 378.12 348.28" stroke-dasharray="11 8" transform="rotate(88.88, 400, 400)" opacity="0.89"></path><path d="M380.11 359.14C388.79 352.98 397.64 352.01 405.26 355.27 413.27 359.29 420.49 366.57 425.04 375.35 429.92 384.13 430.76 392.76 427.96 400.39 425 408.91 418.4 417.52 409.09 424.32 399.78 431.87 389.66 435.08 380.8 433.78 371.96 432.02 364.37 425.96 360.2 416.62 356.32 407.28 356.76 396.55 360.5 386.41 364.48 375.98 371.43 365.98 380.11 359.14" stroke-dasharray="11 7" transform="rotate(92.92, 400, 400)" opacity="0.92"></path><path d="M383.33 370C395 361.9 408.42 366.59 414.23 378.35 420.63 390.11 415.97 404.8 403.72 413.46 391.45 423.43 376.76 421.42 371.01 409.1 365.78 396.78 371.66 379.33 383.33 370" stroke-dasharray="7 2" transform="rotate(96.96, 400, 400)" opacity="0.96"></path></g></svg>